<?xml version="1.0" encoding="UTF-8" standalone="no"?><!DOCTYPE svg PUBLIC "-//W3C//DTD SVG 1.1//EN" "http://www.w3.org/Graphics/SVG/1.1/DTD/svg11.dtd"><svg width="100%" height="100%" viewBox="0 0 735 136" version="1.1" xmlns="http://www.w3.org/2000/svg" xmlns:xlink="http://www.w3.org/1999/xlink" xml:space="preserve" xmlns:serif="http://www.serif.com/" style="fill-rule:evenodd;clip-rule:evenodd;stroke-linejoin:round;stroke-miterlimit:2;"><rect id="Artboard1" x="0" y="0" width="734.958" height="135.877" style="fill:none;"/><clipPath id="_clip1"><rect x="0" y="0" width="734.958" height="135.877"/></clipPath><g clip-path="url(#_clip1)"><g transform="matrix(144,0,0,144,9.919425,106.982183)"><path d="M0.262,0.008c-0.041,0 -0.08,-0.009 -0.115,-0.028c-0.035,-0.019 -0.064,-0.046 -0.085,-0.082c-0.021,-0.036 -0.032,-0.079 -0.032,-0.13c0,-0.045 0.008,-0.087 0.023,-0.125c0.015,-0.038 0.036,-0.071 0.064,-0.099c0.027,-0.028 0.059,-0.05 0.095,-0.065c0.036,-0.015 0.075,-0.023 0.117,-0.023c0.044,0 0.082,0.008 0.114,0.025c0.032,0.017 0.056,0.042 0.072,0.077c0.016,0.035 0.022,0.08 0.017,0.136c-0.004,0.064 -0.017,0.119 -0.039,0.166c-0.023,0.047 -0.053,0.084 -0.092,0.11c-0.039,0.026 -0.084,0.039 -0.138,0.039Zm0.048,-0.129c0.031,0 0.058,-0.007 0.082,-0.022c0.024,-0.015 0.042,-0.036 0.056,-0.062c0.014,-0.027 0.02,-0.057 0.02,-0.092c0,-0.037 -0.011,-0.066 -0.032,-0.087c-0.021,-0.021 -0.052,-0.032 -0.091,-0.032c-0.03,-0 -0.057,0.007 -0.081,0.022c-0.024,0.015 -0.043,0.036 -0.056,0.062c-0.014,0.027 -0.02,0.057 -0.02,0.092c0,0.037 0.011,0.066 0.032,0.087c0.021,0.021 0.052,0.032 0.091,0.032Zm0.107,0.121l0.022,-0.107l0.035,-0.16l0.021,-0.16l0.022,-0.111l0.156,0l-0.107,0.538l-0.148,-0Z" style="fill:#bf0603;fill-rule:nonzero;"/></g><g transform="matrix(144,0,0,144,109.329184,106.982183)"><path d="M0.249,0.008c-0.044,0 -0.083,-0.009 -0.115,-0.028c-0.032,-0.019 -0.055,-0.047 -0.068,-0.083c-0.013,-0.037 -0.015,-0.082 -0.004,-0.136l0.059,-0.298l0.156,0l-0.057,0.288c-0.008,0.039 -0.004,0.07 0.01,0.091c0.014,0.021 0.04,0.032 0.076,0.032c0.039,0 0.071,-0.011 0.097,-0.034c0.026,-0.023 0.044,-0.057 0.053,-0.104l0.055,-0.273l0.156,0l-0.107,0.538l-0.148,-0l0.03,-0.152l0.022,0.046c-0.026,0.039 -0.057,0.068 -0.096,0.086c-0.038,0.018 -0.078,0.027 -0.12,0.027Z" style="fill:#bf0603;fill-rule:nonzero;"/></g><g transform="matrix(144,0,0,144,208.190272,106.982183)"><path d="M0.019,-0l0.107,-0.538l0.148,0l-0.03,0.153l-0.014,-0.044c0.024,-0.043 0.056,-0.074 0.094,-0.091c0.039,-0.017 0.085,-0.026 0.139,-0.026l-0.028,0.144c-0.007,-0.001 -0.013,-0.002 -0.018,-0.002c-0.006,-0 -0.012,-0.001 -0.018,-0.001c-0.045,0 -0.083,0.011 -0.112,0.034c-0.029,0.023 -0.049,0.06 -0.059,0.11l-0.052,0.26l-0.156,-0Z" style="fill:#bf0603;fill-rule:nonzero;"/></g><g transform="matrix(144,0,0,144,268.995778,106.982183)"><path d="M0.305,0.008c-0.056,0 -0.104,-0.01 -0.145,-0.03c-0.041,-0.02 -0.073,-0.048 -0.096,-0.084c-0.023,-0.036 -0.034,-0.078 -0.034,-0.127c0,-0.06 0.013,-0.114 0.04,-0.161c0.027,-0.047 0.064,-0.084 0.112,-0.111c0.048,-0.027 0.103,-0.041 0.165,-0.041c0.053,0 0.098,0.01 0.136,0.029c0.038,0.019 0.068,0.047 0.089,0.082c0.021,0.035 0.031,0.077 0.031,0.125c0,0.014 -0.001,0.028 -0.003,0.042c-0.002,0.014 -0.004,0.027 -0.007,0.04l-0.444,0l0.016,-0.091l0.356,0l-0.064,0.028c0.005,-0.03 0.004,-0.055 -0.005,-0.075c-0.009,-0.02 -0.023,-0.036 -0.042,-0.047c-0.019,-0.011 -0.042,-0.016 -0.07,-0.016c-0.034,0 -0.062,0.008 -0.086,0.025c-0.024,0.016 -0.042,0.039 -0.054,0.068c-0.012,0.029 -0.018,0.061 -0.018,0.097c0,0.041 0.011,0.072 0.034,0.092c0.023,0.021 0.058,0.031 0.105,0.031c0.028,-0 0.054,-0.004 0.079,-0.013c0.025,-0.009 0.047,-0.021 0.065,-0.037l0.065,0.103c-0.031,0.025 -0.066,0.043 -0.105,0.055c-0.039,0.011 -0.079,0.017 -0.12,0.017Z" style="fill:#bf0603;fill-rule:nonzero;"/></g><g transform="matrix(144,0,0,144,359.440405,106.982183)"><path d="M0.019,-0l0.148,-0.742l0.156,0l-0.148,0.742l-0.156,-0Z" style="fill:#bf0603;fill-rule:nonzero;"/></g><g transform="matrix(144,0,0,144,402.735021,106.982183)"><path d="M0.019,-0l0.148,-0.742l0.156,0l-0.148,0.742l-0.156,-0Z" style="fill:#bf0603;fill-rule:nonzero;"/></g><g transform="matrix(144,0,0,144,446.029637,106.982183)"><path d="M0.056,0.202c-0.028,0 -0.055,-0.004 -0.082,-0.013c-0.027,-0.008 -0.049,-0.02 -0.065,-0.034l0.073,-0.111c0.011,0.01 0.024,0.018 0.039,0.024c0.014,0.006 0.03,0.009 0.048,0.009c0.02,0 0.037,-0.005 0.052,-0.015c0.015,-0.01 0.03,-0.027 0.044,-0.05l0.043,-0.068l0.014,-0.016l0.284,-0.464l0.154,0l-0.358,0.574c-0.026,0.042 -0.052,0.076 -0.076,0.1c-0.024,0.024 -0.05,0.041 -0.077,0.051c-0.027,0.01 -0.058,0.015 -0.092,0.015Zm0.119,-0.181l-0.129,-0.559l0.156,0l0.098,0.45l-0.125,0.109Z" style="fill:#bf0603;fill-rule:nonzero;"/></g><g transform="matrix(144,0,0,144,530.00199,106.982183)"><path d="M0.262,0.008c-0.041,0 -0.08,-0.009 -0.115,-0.028c-0.035,-0.019 -0.064,-0.046 -0.085,-0.082c-0.021,-0.036 -0.032,-0.079 -0.032,-0.13c0,-0.045 0.008,-0.087 0.023,-0.125c0.015,-0.038 0.036,-0.071 0.064,-0.099c0.027,-0.028 0.059,-0.05 0.095,-0.065c0.036,-0.015 0.075,-0.023 0.117,-0.023c0.044,0 0.082,0.008 0.114,0.025c0.032,0.017 0.056,0.042 0.072,0.077c0.016,0.035 0.022,0.08 0.017,0.136c-0.004,0.064 -0.017,0.119 -0.039,0.166c-0.023,0.047 -0.053,0.084 -0.092,0.11c-0.039,0.026 -0.084,0.039 -0.138,0.039Zm0.048,-0.129c0.031,0 0.058,-0.007 0.082,-0.022c0.024,-0.015 0.042,-0.036 0.056,-0.062c0.014,-0.027 0.02,-0.057 0.02,-0.092c0,-0.037 -0.011,-0.066 -0.032,-0.087c-0.021,-0.021 -0.052,-0.032 -0.091,-0.032c-0.03,-0 -0.057,0.007 -0.081,0.022c-0.024,0.015 -0.043,0.036 -0.056,0.062c-0.014,0.027 -0.02,0.057 -0.02,0.092c0,0.037 0.011,0.066 0.032,0.087c0.021,0.021 0.052,0.032 0.091,0.032Zm0.107,0.121l0.022,-0.107l0.035,-0.16l0.021,-0.16l0.022,-0.111l0.156,0l-0.107,0.538l-0.148,-0Z" style="fill:#bf0603;fill-rule:nonzero;"/></g><g transform="matrix(144,0,0,144,629.411749,106.982183)"><path d="M0.439,-0.546c0.046,0 0.085,0.009 0.117,0.028c0.032,0.019 0.055,0.047 0.068,0.083c0.013,0.037 0.014,0.082 0.004,0.136l-0.059,0.298l-0.156,-0l0.057,-0.288c0.008,-0.039 0.005,-0.07 -0.009,-0.091c-0.014,-0.021 -0.04,-0.032 -0.079,-0.032c-0.039,0 -0.072,0.011 -0.098,0.034c-0.026,0.023 -0.044,0.057 -0.054,0.104l-0.055,0.273l-0.156,-0l0.107,-0.538l0.148,0l-0.03,0.152l-0.022,-0.046c0.026,-0.039 0.058,-0.068 0.096,-0.086c0.038,-0.018 0.079,-0.027 0.122,-0.027Z" style="fill:#bf0603;fill-rule:nonzero;"/></g><g transform="matrix(144,0,0,144,728.848837,106.982183)"></g><g opacity="0.8"><path d="M8.826,25.094l9.91,-1.584c4.172,0 7.441,2.408 5.51,6.816c-1.176,2.684 -4.019,5.328 -7.182,5.328c-1.02,0 -2.204,-0.406 -2.309,-1.632l1.179,-4.224l1.021,-2.112l-6.253,2.112l-1.876,6.144c-0.291,3.778 2.026,5.328 5.538,5.328c6.687,0 13.076,-4.977 15.691,-10.944c3.043,-6.945 -1.585,-11.712 -8.597,-11.712l-10.381,1.344l2.734,-6.24l4.641,-0.624l5.467,-0.864l2.163,-5.376l-10.063,1.824l1.346,-3.072l2.58,-5.232l-6,0l-2.13,5.52l-1.388,3.168l-1.941,0.048l-1.701,0.048l-5.619,-0.432l-2.307,5.376l1.029,-0.048l1.179,0.048l2.619,0.048l2.613,-0.048l2.01,-0.096l-3.19,7.392l-8.795,4.08c-2.443,1.542 -5.974,4.213 -7.24,7.104c-0.786,1.794 -0.945,3.753 0.264,5.424c1.654,2.282 4.903,3.408 7.579,3.408c2.119,0 4.398,-1.004 5.636,-2.784l2.171,-4.08l4.095,-9.456Zm-9.203,8.736l-1.939,2.016l-2.609,-1.056l-0.617,-2.208c1.108,-2.53 6.487,-5.004 8.236,-5.76l-3.07,7.008Zm39.882,-20.256c-0.947,-3.924 -2.563,-6.783 -5.193,-9.84l-5.837,3.024c2.525,2.839 4.334,6.652 5.058,10.368l5.972,-3.552Z" style="fill:#800503;fill-rule:nonzero;"/><path d="M57.314,6.23c7.07,2 13.745,2.695 21.091,3.024l3.403,-5.904l-1.344,0c-5.767,0 -13.246,-0.617 -18.796,-2.784l-4.353,5.664Zm-11.248,16.032c4.932,-1.713 15.307,-3.312 20.459,-3.312c3.528,0 6.962,1.309 5.16,5.424c-1.731,3.952 -5.826,6.777 -9.557,8.448c-4.887,2.192 -10.721,3.423 -16.046,3.648l-0.133,6c6.545,-0.976 11.189,-1.805 17.097,-4.512c6.093,-2.78 12.369,-7.417 15.155,-13.776c1.166,-2.662 1.952,-6.554 -0.808,-8.784c-2.109,-1.751 -5.76,-1.968 -8.21,-1.968l-15.787,1.632l-5.925,0.816l-1.405,6.384Z" style="fill:#800503;fill-rule:nonzero;"/><path d="M104.36,17.174l0.475,-0.864l1.337,-2.832l0.912,-0.768l1.051,-0.864l2.023,-1.44l-0.893,-2.016l-0.66,0.192l2.064,-4.272l0.943,-1.824l0.97,-1.776l-6.054,-0.096l-1.034,2.688l-1.772,3.936l-0.895,1.824l-5.934,0.288l-1.926,-0.096l-2.088,5.424l7.638,-0.672l-1.142,2.496l-2.205,4.704l-7.821,5.472l-4.319,2.736l0.282,5.712l3.407,-2.736l5.174,-4.032l0.117,-0.048l-2.914,6.432l-3.68,7.632l6.192,0l3.23,-7.92l2.454,-5.712l2.22,-4.848l12.164,-7.824l7.088,-2.592c1.269,0 1.705,0.6 1.19,1.776l-3.658,6.048l-7.246,12.048c-0.787,1.797 -1.679,4.248 -0.154,6.048l3.581,1.248c3.185,0 6.164,-1.619 8.618,-3.456l5.442,-4.752l-0.692,-5.76l-5.181,5.472l-4.432,2.448c-1.625,0 -1.354,-1.401 -0.917,-2.4l6.748,-10.8l4.417,-7.344c1.523,-3.476 0.023,-6.384 -3.923,-6.384c-3.998,0 -9,2.744 -12.105,4.512l-8.043,4.992l-0.048,0Z" style="fill:#800503;fill-rule:nonzero;"/><path d="M154.839,0.23l-0.859,1.632l-3.328,5.952l-6.161,12.528l-2.443,5.904l-0.4,0.912l-0.321,0.624l5.802,-0.096l0.442,-1.008c2.598,-5.931 7.606,-11.768 12.84,-15.504c1.758,-1.247 4.022,-2.544 6.299,-2.544c5.976,0 2.936,7.979 1.721,10.752c-2.932,6.693 -7.751,11.861 -14.547,14.688l-11.711,2.736l0.351,5.664l10.586,-2.688c14.774,-5.455 20.101,-17.615 21.027,-19.728c1.603,-3.658 3.429,-8.578 2.138,-12.768c-0.909,-2.996 -3.306,-4.32 -6.315,-4.32c-4.214,0 -8.138,2.389 -11.265,4.896l-5.526,5.712l-0.751,1.056l-0.144,-0l2.727,-4.8l5.787,-9.264l-5.949,-0.336Z" style="fill:#800503;fill-rule:nonzero;"/><path d="M216.911,11.606l-2.558,3.648l-1.782,-0.096l-6.897,0.624l2.259,-4.608l17.632,-1.68l1.956,-0.192l2.178,-5.52l-19.307,2.544l3.451,-5.904l-5.826,-0.288l-0.24,0.768l-1.295,2.736l-1.454,2.88l-1.056,0l-8.661,-0.72l-2.355,5.376l1.125,-0.048l0.912,0l7.692,0.192l-2.716,5.76l-8.469,4.32c-3.868,2.66 -7.543,6.371 -9.463,10.752c-1.631,3.724 -1.272,8.4 3.808,8.4c5.303,0 11.79,-4.159 15.604,-6.912c5.543,-3.965 9.355,-7.669 13.946,-12.768c3.048,1.21 3.73,3.757 2.474,6.624c-1.697,3.873 -5.122,6.004 -8.897,7.488c-3.523,1.384 -6.215,1.873 -10.009,1.92l0.168,5.424l10.907,-2.544c5.745,-2.339 10.944,-6.137 13.513,-12c1.335,-3.048 1.844,-6.359 -0.585,-9.072l-3.962,-2.352l1.471,-1.824l1.186,-1.392l-4.751,-1.536Zm-19.243,10.944l-3.889,10.848l-4.975,1.824c-2.284,0 -1.738,-2.277 -1.201,-3.504l4.726,-5.856l5.339,-3.312Zm2.249,7.248l0.183,-0.528l0.225,-0.624l3.281,-8.256l6.139,-0.864l1.227,0.048l-10.158,9.6l-0.822,0.672l-0.075,-0.048Z" style="fill:#800503;fill-rule:nonzero;"/><path d="M245.345,21.974l12.255,-14.496l4.77,-5.52l-5.765,-1.632l-25.676,32.64l-5.584,6.72l5.309,2.016l8.848,-10.992c1.923,-1.957 6.883,-6.72 10.576,-6.72l1.676,1.104l-0.857,2.832l-1.52,3.36l-0.21,0.48l-1.518,5.328c0.002,3.375 3.004,4.176 5.706,4.176c10.915,-0 19.453,-13.221 20.556,-14.928l-3.703,-3.6l-5.168,7.632c-1.868,2.191 -4.955,5.136 -8.25,5.136l-2.25,-0.672c-0.929,-1.219 1.142,-5.017 1.194,-5.136c0.544,-1.242 3.105,-6.339 2.648,-8.784c-0.409,-1.959 -2.441,-2.736 -4.177,-2.736c-2.477,0 -5.526,1.422 -7.433,2.832l-1.375,1.056l-0.054,-0.096Z" style="fill:#800503;fill-rule:nonzero;"/></g><g transform="matrix(48,0,0,48,497.321648,126.315683)"><path d="M-0.046,-0l0.452,-0.7l0.161,0l0.172,0.7l-0.162,-0l-0.136,-0.62l0.064,0l-0.378,0.62l-0.173,-0Zm0.187,-0.15l0.066,-0.123l0.361,0l0.019,0.123l-0.446,0Z" style="fill:#800503;fill-opacity:0.8;fill-rule:nonzero;"/></g><g transform="matrix(48,0,0,48,534.344726,126.315683)"><path d="M0.064,0.202c-0.027,0 -0.054,-0.004 -0.082,-0.013c-0.027,-0.009 -0.049,-0.02 -0.065,-0.034l0.072,-0.112c0.011,0.01 0.024,0.018 0.038,0.024c0.014,0.006 0.03,0.009 0.048,0.009c0.02,0 0.038,-0.005 0.053,-0.015c0.015,-0.01 0.03,-0.027 0.045,-0.051l0.043,-0.068l0.014,-0.016l0.284,-0.464l0.154,0l-0.358,0.574c-0.027,0.042 -0.052,0.075 -0.076,0.099c-0.024,0.024 -0.05,0.042 -0.077,0.051c-0.027,0.01 -0.058,0.015 -0.092,0.015Zm0.119,-0.181l-0.129,-0.559l0.156,0l0.098,0.45l-0.125,0.109Z" style="fill:#800503;fill-opacity:0.8;fill-rule:nonzero;"/></g><g transform="matrix(48,0,0,48,563.85995,126.315683)"><path d="M0.366,0.008c-0.043,0 -0.081,-0.008 -0.113,-0.025c-0.032,-0.017 -0.056,-0.042 -0.073,-0.077c-0.016,-0.035 -0.022,-0.08 -0.017,-0.136c0.004,-0.064 0.017,-0.12 0.04,-0.167c0.022,-0.047 0.053,-0.084 0.091,-0.11c0.039,-0.026 0.084,-0.039 0.137,-0.039c0.042,0 0.081,0.009 0.116,0.029c0.035,0.019 0.064,0.046 0.085,0.082c0.021,0.036 0.032,0.079 0.032,0.131c0,0.045 -0.008,0.086 -0.023,0.124c-0.015,0.038 -0.037,0.071 -0.064,0.099c-0.027,0.028 -0.058,0.05 -0.095,0.066c-0.036,0.016 -0.075,0.024 -0.117,0.024Zm-0.383,0.186l0.146,-0.732l0.148,0l-0.022,0.107l-0.034,0.16l-0.021,0.16l-0.061,0.305l-0.156,0Zm0.365,-0.315c0.031,0 0.059,-0.008 0.082,-0.023c0.023,-0.015 0.042,-0.036 0.055,-0.062c0.014,-0.026 0.021,-0.057 0.021,-0.092c0,-0.037 -0.011,-0.066 -0.032,-0.087c-0.021,-0.021 -0.052,-0.032 -0.091,-0.032c-0.03,0 -0.057,0.008 -0.081,0.022c-0.024,0.015 -0.043,0.036 -0.056,0.062c-0.013,0.026 -0.02,0.057 -0.02,0.093c0,0.037 0.011,0.066 0.032,0.087c0.021,0.021 0.051,0.032 0.09,0.032Z" style="fill:#800503;fill-opacity:0.8;fill-rule:nonzero;"/></g><g transform="matrix(48,0,0,48,597.304389,126.315683)"><path d="M0.308,0.008c-0.056,0 -0.104,-0.01 -0.145,-0.03c-0.041,-0.02 -0.073,-0.048 -0.096,-0.084c-0.023,-0.036 -0.034,-0.078 -0.034,-0.127c0,-0.06 0.014,-0.114 0.04,-0.161c0.027,-0.047 0.064,-0.084 0.112,-0.111c0.048,-0.027 0.103,-0.041 0.165,-0.041c0.053,0 0.098,0.01 0.136,0.03c0.038,0.02 0.068,0.047 0.089,0.082c0.021,0.035 0.031,0.077 0.031,0.126c0,0.014 -0.001,0.028 -0.002,0.042c-0.002,0.014 -0.004,0.027 -0.007,0.04l-0.445,0l0.016,-0.091l0.356,0l-0.064,0.028c0.005,-0.03 0.004,-0.055 -0.005,-0.076c-0.009,-0.02 -0.023,-0.036 -0.042,-0.047c-0.019,-0.011 -0.043,-0.016 -0.07,-0.016c-0.034,0 -0.063,0.008 -0.087,0.024c-0.024,0.016 -0.042,0.039 -0.053,0.068c-0.012,0.029 -0.018,0.061 -0.018,0.097c-0,0.041 0.012,0.072 0.035,0.092c0.023,0.02 0.058,0.03 0.105,0.03c0.027,0 0.054,-0.004 0.079,-0.013c0.025,-0.009 0.047,-0.021 0.065,-0.037l0.065,0.103c-0.031,0.025 -0.067,0.043 -0.106,0.054c-0.039,0.012 -0.079,0.018 -0.119,0.018Z" style="fill:#800503;fill-opacity:0.8;fill-rule:nonzero;"/></g><g transform="matrix(48,0,0,48,627.425268,126.315683)"><path d="M-0.047,-0.001l0.033,-0.129c0.005,0.001 0.009,0.001 0.013,0.002c0.004,0.001 0.007,0.001 0.011,0.001c0.021,0 0.04,-0.008 0.054,-0.024c0.015,-0.016 0.027,-0.039 0.038,-0.069c0.011,-0.03 0.021,-0.064 0.031,-0.104l0.052,-0.214l0.459,0l-0.108,0.538l-0.156,-0l0.09,-0.449l0.028,0.039l-0.237,0l0.04,-0.04l-0.033,0.136c-0.013,0.056 -0.028,0.105 -0.042,0.146c-0.015,0.041 -0.031,0.075 -0.049,0.102c-0.018,0.027 -0.038,0.047 -0.061,0.06c-0.023,0.013 -0.05,0.02 -0.081,0.02c-0.014,0 -0.028,-0.001 -0.041,-0.003c-0.013,-0.002 -0.027,-0.005 -0.042,-0.009Z" style="fill:#800503;fill-opacity:0.8;fill-rule:nonzero;"/></g><g transform="matrix(48,0,0,48,659.395027,126.315683)"><path d="M0.377,-0.366c0.063,0 0.11,0.013 0.142,0.039c0.032,0.026 0.048,0.064 0.048,0.115c0,0.043 -0.011,0.08 -0.033,0.112c-0.022,0.032 -0.053,0.057 -0.094,0.074c-0.04,0.018 -0.088,0.026 -0.142,0.026l-0.277,-0l0.108,-0.538l0.155,0l-0.034,0.172l0.127,0Zm-0.079,0.257c0.023,0 0.042,-0.004 0.059,-0.012c0.017,-0.008 0.03,-0.019 0.039,-0.033c0.009,-0.014 0.014,-0.03 0.014,-0.049c0,-0.041 -0.027,-0.062 -0.08,-0.062l-0.101,0l-0.031,0.155l0.1,0Z" style="fill:#800503;fill-opacity:0.8;fill-rule:nonzero;"/></g><g transform="matrix(48,0,0,48,686.611152,126.315683)"><path d="M0.363,-0l0.035,-0.181l0.017,0.03l-0.148,0c-0.069,0 -0.123,-0.016 -0.16,-0.047c-0.038,-0.031 -0.056,-0.072 -0.056,-0.122c0,-0.069 0.026,-0.122 0.079,-0.161c0.053,-0.038 0.124,-0.058 0.215,-0.058l0.263,0l-0.107,0.538l-0.138,-0Zm-0.384,-0l0.185,-0.205l0.159,0l-0.17,0.205l-0.173,-0Zm0.429,-0.226l0.045,-0.229l0.013,0.043l-0.136,0c-0.038,0 -0.068,0.008 -0.089,0.023c-0.021,0.015 -0.031,0.038 -0.031,0.067c0,0.042 0.028,0.062 0.084,0.062l0.139,0l-0.027,0.034Z" style="fill:#800503;fill-opacity:0.8;fill-rule:nonzero;"/></g><g transform="matrix(48,0,0,48,716.826397,126.315683)"><path d="M0.021,-0l0.108,-0.538l0.156,0l-0.042,0.21l0.234,0l0.042,-0.21l0.156,0l-0.108,0.538l-0.156,-0l0.04,-0.201l-0.234,0l-0.04,0.201l-0.156,-0Z" style="fill:#800503;fill-opacity:0.8;fill-rule:nonzero;"/></g><g transform="matrix(48,0,0,48,750.15335,126.315683)"></g></g></svg>